# xmcd
#
# Track frame offsets:
# 150
# 22622
# 40707
# 64082
# 85400
# 96417
# 116600
# 139485
# 161240
# 178877
# 197532
# 217907
# 233577
# 248585
# 271512
# 292120
#
# Disc length: 4164 seconds
#
#
# Revision: 0
# Processed by: cddbd v1.4PL0 Copyright (c) Steve Scherf et al.
# Submitted via: FreeRIP 2.30 
#
DISCID=dc104210
DTITLE=Kenny G. - The Collection
DYEAR=1900
DGENRE=Country
TTITLE0=Songbird
TTITLE1=Trade Winds
TTITLE2=Silhouette
TTITLE3=Don't Make Me Wait for Love
TTITLE4=Midnight Motion
TTITLE5=Against Doctor Orders
TTITLE6=Going Home
TTITLE7=What Does It Take 
TTITLE8=Pastel
TTITLE9=Uncle Al
TTITLE10=We've Saved the Best for Last
TTITLE11=Last Night of The Year
TTITLE12=You Make Me  Believe
TTITLE13=Let Go
TTITLE14=Let Go
TTITLE15=Instrumental
EXTD=
EXTT0=
EXTT1=
EXTT2=
EXTT3=
EXTT4=
EXTT5=
EXTT6=
EXTT7=
EXTT8=
EXTT9=
EXTT10=
EXTT11=
EXTT12=
EXTT13=
EXTT14=
EXTT15=
PLAYORDER=
